<svg width="64px" height="64px" enable-background="new 5.5 -3.5 64 64" version="1.0" viewBox="5.5 -3.5 64 64" xmlns="http://www.w3.org/2000/svg">
    <path d="m37.44-3.5c8.988 0 16.57 3.085 22.74 9.257 6.208 6.21 9.315 13.79 9.315 22.74 0 8.991-3.049 16.48-9.145 22.46-6.476 6.363-14.11 9.544-22.91 9.544-8.649 0-16.15-3.144-22.51-9.43-6.285-6.286-9.429-13.81-9.429-22.57 0-8.761 3.144-16.34 9.429-22.74 6.172-6.173 13.68-9.258 22.51-9.258zm0.114 5.772c-7.276 0-13.43 2.553-18.46 7.657-5.22 5.334-7.829 11.52-7.829 18.57 0 7.086 2.59 13.22 7.77 18.4 5.181 5.182 11.35 7.771 18.51 7.771 7.123 0 13.33-2.607 18.63-7.828 5.029-4.838 7.543-10.95 7.543-18.34 0-7.276-2.553-13.46-7.656-18.57-5.104-5.104-11.28-7.656-18.51-7.656zm8.572 18.28v13.08h-3.656v15.54h-9.944v-15.54h-3.656v-13.09c0-0.572 0.2-1.057 0.599-1.457 0.401-0.399 0.887-0.6 1.457-0.6h13.14c0.533 0 1.01 0.2 1.428 0.6 0.417 0.4 0.628 0.886 0.628 1.457zm-13.09-8.228c0-3.008 1.485-4.514 4.458-4.514s4.457 1.504 4.457 4.514c0 2.971-1.486 4.457-4.457 4.457s-4.458-1.486-4.458-4.457z" style="fill:#fff"/>
</svg>
