<svg version="1" xmlns="http://www.w3.org/2000/svg" width="682.667" height="682.667" viewBox="0 0 512.000000 512.000000"><path d="M29.5 32.4c-15.1 3.8-24.7 13.8-28 29.3-2.2 10.2-2.2 378.4 0 388.6 3.4 16.2 14 26.6 30 29.7 4.4.8 64.8 1 227.5.8l221.5-.3 5.7-2.2c11.4-4.3 18.6-11.5 22.5-22.7 1.7-4.8 1.8-15 1.8-199.6s-.1-194.8-1.8-199.6c-3.9-11.3-10.9-18.3-22.5-22.8l-5.7-2.1-223-.2c-175-.1-224.1.1-228 1.1zM196 53.7c0 .5-.7 3.3-1.5 6.3-1.2 4.7-1.5 19.3-1.5 95v89.6l-6 9.3c-8 12.4-16.7 24-35.8 47.9-8.6 10.8-17.9 22.7-20.5 26.4-11.4 16.1-14.8 27.8-12.9 43.9 2.6 21.3 11.6 31.4 30 34.1 6.6 1 8.5.9 13.6-.6 5-1.5 7.1-2.9 12.6-8.4 4.2-4.3 7.7-9 9.5-12.9 2.6-5.4 3.4-6.3 5.8-6.3h2.7v8.6c0 15.6-3.6 33.9-9.5 47.7-.6 1.5-.1 1.7 4.9 1.7h5.6v5.2c0 2.9.7 7.8 1.5 10.8.8 3 1.5 5.8 1.5 6.2 0 1.3-152.1 1-158-.3-6.1-1.3-10.6-4.9-13.1-10.4-1.8-3.8-1.9-11.7-1.9-191.5 0-180.2.1-187.7 1.9-191.5 1-2.2 3-5.1 4.4-6.4 5.3-4.9 6.8-5 89.5-5 42.4-.1 77.2.2 77.2.6zm279.6.8c5.6 1.6 9.6 5.2 11.8 10.7 1.4 3.3 1.6 23.9 1.6 191 0 179.6-.1 187.5-1.9 191.3-2.5 5.6-7.1 9.1-13.3 10.5-3.8.8-38.5 1-124.8.8-119-.3-119.5-.3-123.5-2.4-2.2-1.1-5.3-4-7-6.3l-3-4.3-.3-187.5c-.1-135.4.1-188.7.9-191.7 1.4-5.1 7.3-11 12.6-12.4 2.4-.6 45.8-1 122.9-1.1 102.3-.1 119.7.1 124 1.4z"/><path d="M90.6 92.2c-3.1 9-15.2 44.2-27 78.3l-21.3 62 12 .3c6.6.1 12.2.1 12.4-.2.3-.3 3.3-9.4 6.7-20.3l6.2-19.8 31.1-.3 31.1-.2 2.5 8.2c1.4 4.6 4.3 13.8 6.4 20.5l3.7 12.3h12.3c6.8 0 12.3-.3 12.3-.8-.1-.4-12.1-35.6-26.8-78.2l-26.7-77.5-14.6-.3-14.7-.3-5.6 16.3zm32.9 43.8l12.1 38.5-24.5.3c-13.4.1-24.6 0-24.9-.3-.3-.3 5-18.3 11.9-40.1 6.8-21.7 12.6-38.9 12.8-38.2.3.7 5.9 18.6 12.6 39.8zM288.1 78.2c-1.7 4.5-53.1 154-53.1 154.4 0 .3 5.5.3 12.2.2l12.1-.3 1.8-5.5c1-3 3.9-12.1 6.4-20.3l4.6-14.7 31.1.2 31.1.3 2.8 8.5c1.5 4.7 4.4 13.8 6.4 20.2l3.7 11.8h11.9c6.5 0 11.9-.3 11.9-.8 0-.4-12-35.7-26.7-78.5L317.6 76h-14.3c-14 0-14.4.1-15.2 2.2zm27.4 55.5c6.5 20.8 12 38.6 12.3 39.5.4 1.7-1.3 1.8-24.8 1.8s-25.2-.1-24.8-1.8c2.7-9.8 24.4-77.2 24.8-77.2.3 0 6 17 12.5 37.7zM334.7 260c-14.3 3.6-27 18.2-30.6 34.8-3.6 17.1 1.2 39 12.8 57.7 5.9 9.6 68.2 88.5 69.6 88.1 1.3-.3 56.8-70.7 64.4-81.6 11.9-17.3 17.1-31.3 17.8-48.5.6-13.1-1-20.7-6.2-30.1-8.4-15-22.2-22.6-37.9-21-16.7 1.7-30.9 16.7-36.5 38.7-1.1 4.1-2.2 6.7-2.4 5.9-.3-.8-1.3-4.2-2.2-7.5-4.3-15.7-14.1-29.2-25-34.1-6.2-2.9-17.4-4-23.8-2.4z"/></svg>